HIERARCHY
ROOT hip
{
  OFFSET 0 0 0
  CHANNELS 6 Xposition Yposition Zposition Zrotation Yrotation Xrotation
  JOINT abdomen
  {
    OFFSET 0 20.6881 -0.73152
    CHANNELS 3 Zrotation Xrotation Yrotation
    JOINT chest
    {
      OFFSET 0 11.7043 -0.48768
      CHANNELS 3 Zrotation Xrotation Yrotation
      JOINT neck
      {
        OFFSET 0 22.1894 -2.19456
        CHANNELS 3 Zrotation Xrotation Yrotation
        JOINT head
        {
          OFFSET -0.24384 7.07133 1.2192
          CHANNELS 3 Zrotation Xrotation Yrotation
          JOINT leftEye
          {
            OFFSET 4.14528 8.04674 8.04672
            CHANNELS 3 Zrotation Xrotation Yrotation
            End Site
            {
              OFFSET 1 0 0
            }
          }
          JOINT rightEye
          {
            OFFSET -3.6576 8.04674 8.04672
            CHANNELS 3 Zrotation Xrotation Yrotation
            End Site
            {
              OFFSET 1 0 0
            }
          }
        }
      }
      JOINT rCollar
      {
        OFFSET -2.68224 19.2634 -4.8768
        CHANNELS 3 Zrotation Xrotation Yrotation
        JOINT rShldr
        {
          OFFSET -8.77824 -1.95073 1.46304
          CHANNELS 3 Zrotation Xrotation Yrotation
          JOINT rForeArm
          {
            OFFSET -28.1742 -1.7115 0.48768
            CHANNELS 3 Zrotation Xrotation Yrotation
            JOINT rHand
            {
              OFFSET -22.5879 0.773209 7.07136
              CHANNELS 3 Zrotation Xrotation Yrotation
              JOINT rThumb1
              {
                OFFSET -1.2192 -0.487915 3.41376
                CHANNELS 3 Zrotation Xrotation Yrotation
                JOINT rThumb2
                {
                  OFFSET -3.37035 -0.52449 3.41376
                  CHANNELS 3 Zrotation Xrotation Yrotation
                  End Site
                  {
                    OFFSET -1.78271 -1.18214 1.43049
                  }
                }
              }
              JOINT rIndex1
              {
                OFFSET -7.75947 0.938293 5.60832
                CHANNELS 3 Zrotation Xrotation Yrotation
                JOINT rIndex2
                {
                  OFFSET -2.54057 -0.884171 1.56538
                  CHANNELS 3 Zrotation Xrotation Yrotation
                  End Site
                  {
                    OFFSET -1.62519 -0.234802 1.16502
                  }
                }
              }
              JOINT rMid1
              {
                OFFSET -8.24714 1.18213 3.41376
                CHANNELS 3 Zrotation Xrotation Yrotation
                JOINT rMid2
                {
                  OFFSET -3.10165 -0.590103 1.0647
                  CHANNELS 3 Zrotation Xrotation Yrotation
                  End Site
                  {
                    OFFSET -2.48547 -0.328903 0.83742
                  }
                }
              }
              JOINT rRing1
              {
                OFFSET -8.82822 0.546677 1.51678
                CHANNELS 3 Zrotation Xrotation Yrotation
                JOINT rRing2
                {
                  OFFSET -2.60934 -0.819778 -0.0198488
                  CHANNELS 3 Zrotation Xrotation Yrotation
                  End Site
                  {
                    OFFSET -2.33842 -0.294052 0.168128
                  }
                }
              }
              JOINT rPinky1
              {
                OFFSET -8.27202 -0.0477905 -0.4584
                CHANNELS 3 Zrotation Xrotation Yrotation
                JOINT rPinky2
                {
                  OFFSET -1.82734 -0.647385 -0.700984
                  CHANNELS 3 Zrotation Xrotation Yrotation
                  End Site
                  {
                    OFFSET -1.69225 -0.51767 -0.607171
                  }
                }
              }
            }
          }
        }
      }
      JOINT lCollar
      {
        OFFSET 2.68224 19.2634 -4.8768
        CHANNELS 3 Zrotation Xrotation Yrotation
        JOINT lShldr
        {
          OFFSET 8.77824 -1.95073 1.46304
          CHANNELS 3 Zrotation Xrotation Yrotation
          JOINT lForeArm
          {
            OFFSET 28.1742 -1.7115 0.48768
            CHANNELS 3 Zrotation Xrotation Yrotation
            JOINT lHand
            {
              OFFSET 22.5879 0.773209 7.07136
              CHANNELS 3 Zrotation Xrotation Yrotation
              JOINT lThumb1
              {
                OFFSET 1.2192 -0.487915 3.41376
                CHANNELS 3 Zrotation Xrotation Yrotation
                JOINT lThumb2
                {
                  OFFSET 3.37035 -0.52449 3.41376
                  CHANNELS 3 Zrotation Xrotation Yrotation
                  End Site
                  {
                    OFFSET 1.78271 -1.18214 1.43049
                  }
                }
              }
              JOINT lIndex1
              {
                OFFSET 7.75947 0.938293 5.60832
                CHANNELS 3 Zrotation Xrotation Yrotation
                JOINT lIndex2
                {
                  OFFSET 2.54057 -0.884171 1.56538
                  CHANNELS 3 Zrotation Xrotation Yrotation
                  End Site
                  {
                    OFFSET 1.62519 -0.234802 1.16502
                  }
                }
              }
              JOINT lMid1
              {
                OFFSET 8.24714 1.18213 3.41376
                CHANNELS 3 Zrotation Xrotation Yrotation
                JOINT lMid2
                {
                  OFFSET 3.10165 -0.590103 1.0647
                  CHANNELS 3 Zrotation Xrotation Yrotation
                  End Site
                  {
                    OFFSET 2.48547 -0.328903 0.83742
                  }
                }
              }
              JOINT lRing1
              {
                OFFSET 8.82822 0.546677 1.51678
                CHANNELS 3 Zrotation Xrotation Yrotation
                JOINT lRing2
                {
                  OFFSET 2.60934 -0.819778 -0.0198488
                  CHANNELS 3 Zrotation Xrotation Yrotation
                  End Site
                  {
                    OFFSET 2.33842 -0.294052 0.168128
                  }
                }
              }
              JOINT lPinky1
              {
                OFFSET 8.27202 -0.0477905 -0.4584
                CHANNELS 3 Zrotation Xrotation Yrotation
                JOINT lPinky2
                {
                  OFFSET 1.82734 -0.647385 -0.700984
                  CHANNELS 3 Zrotation Xrotation Yrotation
                  End Site
                  {
                    OFFSET 1.69225 -0.51767 -0.607171
                  }
                }
              }
            }
          }
        }
      }
    }
  }
  JOINT rButtock
  {
    OFFSET -8.77824 4.35084 1.2192
    CHANNELS 3 Zrotation Xrotation Yrotation
    JOINT rThigh
    {
      OFFSET 0 -1.70687 -2.19456
      CHANNELS 3 Zrotation Xrotation Yrotation
      JOINT rShin
      {
        OFFSET 0 -36.8199 0.73152
        CHANNELS 3 Zrotation Xrotation Yrotation
        JOINT rFoot
        {
          OFFSET 0.73152 -45.1104 -5.12064
          CHANNELS 3 Zrotation Xrotation Yrotation
          End Site
          {
            OFFSET -1.1221 -3.69964 12.103
          }
        }
      }
    }
  }
  JOINT lButtock
  {
    OFFSET 8.77824 4.35084 1.2192
    CHANNELS 3 Zrotation Xrotation Yrotation
    JOINT lThigh
    {
      OFFSET 0 -1.70687 -2.19456
      CHANNELS 3 Zrotation Xrotation Yrotation
      JOINT lShin
      {
        OFFSET 0 -36.8199 0.73152
        CHANNELS 3 Zrotation Xrotation Yrotation
        JOINT lFoot
        {
          OFFSET -0.73152 -45.1104 -5.12064
          CHANNELS 3 Zrotation Xrotation Yrotation
          End Site
          {
            OFFSET 1.1221 -3.69964 12.103
          }
        }
      }
    }
  }
}
MOTION
Frames:	4
Frame Time:	0.03333
-0.043626176193356514 61.88918352127075 0.20453119650483131 -3.7025139331817627 3.862205743789673 5.555965900421143 -2.409782648086548 14.786545753479004 3.7550363540649414 2.702805519104004 -9.732258796691895 1.1229747533798218 -5.089598655700684 14.971413612365723 -3.6748950481414795 8.968354225158691 -23.822511672973633 -5.1736016273498535 -0.03484783321619034 -0.0376853309571743 -0.0053418888710439205 0.01295839436352253 -0.025170350447297096 -0.015408942475914955 -0.018818547949194908 -0.023071730509400368 0.029204539954662323 42.98760223388672 36.46269226074219 18.180614471435547 -27.69230842590332 -28.9591064453125 65.81037139892578 -0.16166874766349792 -11.634193420410156 -1.8687689304351807 0.010646809823811054 0.049006830900907516 0.017877310514450073 0.009308272041380405 0.019432375207543373 0.02766965515911579 0.06158198416233063 0.049464982002973557 0.023039771243929863 7.748493194580078 5.468519687652588 0.39374300837516785 -0.02171906642615795 -0.024920277297496796 0.002328666625544429 2.863633871078491 0.9908226132392883 0.07676845788955688 0.0029032782185822725 -0.004972516093403101 0.002943990519270301 10.266772270202637 0.8038910031318665 -0.028393004089593887 -0.018012018874287605 -0.028145717456936836 -0.009157758206129074 2.1861557960510254 -0.6927767395973206 -0.207293301820755 0.02533823624253273 0.016666952520608902 0.0014950876357033849 -49.7005500793457 38.07480239868164 -28.180469512939453 26.92241096496582 -26.670269012451172 -62.34675598144531 0.22546519339084625 -14.638752937316895 1.9482511281967163 0.016547510400414467 -0.0420035757124424 0.0011348609114065766 0.03842437267303467 -0.030111808329820633 0.02080332674086094 0.015528121031820774 -0.01905229687690735 0.025868458673357964 -7.72428035736084 5.4287638664245605 -0.40980222821235657 -0.025495093315839767 0.036533091217279434 0.024177925661206245 -2.9351656436920166 0.8490315079689026 -0.07272431999444962 -0.06289101392030716 0.024040672928094864 0.02272656187415123 -10.238677978515625 0.7517110109329224 -0.04686973616480827 -0.008475810289382935 -0.016289660707116127 -0.034906137734651566 -2.241591453552246 -0.755406379699707 0.18439877033233643 -0.01012633740901947 -0.0019545117393136024 -0.02162168361246586 -25.217649459838867 -40.59370422363281 -20.92670440673828 -1.514825701713562 65.22858428955078 2.5938632488250732 -3.6171882152557373 -10.97265625 -9.710362434387207 -0.04138096049427986 0.014503015205264091 -0.03801592066884041 30.260713577270508 -40.428897857666016 23.148794174194336 1.592102289199829 66.19243621826172 -2.7349886894226074 4.126939296722412 -10.900586128234863 13.245392799377441
-0.00517149455845356 63.0293607711792 0.19529201090335846 -4.098519325256348 3.3003039360046387 5.659802436828613 -2.3297061920166016 14.629108428955078 3.8732988834381104 2.681008815765381 -9.710695266723633 1.2586010694503784 -5.267117500305176 14.999844551086426 -3.5595955848693848 8.664019584655762 -23.742305755615234 -5.455953598022461 0.0322045274078846 -0.015097583644092083 -0.026526400819420815 0.02120455540716648 -0.03606069087982178 0.037711240351200104 -0.03164686635136604 -0.02664107456803322 -0.0014463530387729406 44.121891021728516 36.9528694152832 17.780567169189453 -27.205780029296875 -28.321849822998047 65.18560028076172 -0.1122288703918457 -11.137085914611816 -1.7385594844818115 -0.02310345135629177 0.03231251612305641 0.07725349813699722 0.03232833743095398 -0.03360225260257721 0.03997211903333664 0.0194623414427042 -0.03181346878409386 0.05374602600932121 7.8141937255859375 5.5031232833862305 0.46951058506965637 -0.09055331349372864 -0.043921854346990585 0.08040538430213928 2.7173571586608887 0.9981620907783508 0.013394113630056381 -0.04168696328997612 0.04145673289895058 -0.003340675961226225 10.419500350952148 0.8147290349006653 -0.06331317871809006 0.045172300189733505 0.013022330589592457 -0.009778494946658611 2.278646469116211 -0.6949770450592041 -0.20365014672279358 0.04411983862519264 -0.025756802409887314 -0.04905703663825989 -50.60688781738281 38.89179992675781 -28.47325325012207 26.714853286743164 -26.197437286376953 -61.49195098876953 0.18571865558624268 -12.979154586791992 1.8246618509292603 0.022759849205613136 -0.08201954513788223 0.024307329207658768 0.12967349588871002 -0.033075086772441864 0.05621927231550217 0.02307429164648056 -0.016494926065206528 0.036079343408346176 -7.7686686515808105 5.475133419036865 -0.44680842757225037 -0.07620067894458771 0.08820658922195435 0.053346313536167145 -2.964540719985962 0.8433766961097717 -0.047840625047683716 -0.04086252674460411 0.0033376135397702456 0.06449034810066223 -10.347454071044922 0.6964448094367981 -0.003349087666720152 0.024582965299487114 0.038725074380636215 -0.061012037098407745 -2.31408429145813 -0.6727809906005859 0.17165112495422363 0.015562850050628185 -0.04976261407136917 -0.01444561779499054 -24.540102005004883 -40.22902297973633 -19.78789520263672 -1.6489229202270508 65.06973266601562 2.710737705230713 -3.5878865718841553 -10.861795425415039 -10.021822929382324 0.05129599571228027 -0.125444695353508 0.052377186715602875 29.944835662841797 -40.45103454589844 22.67828369140625 1.6431695222854614 65.77005767822266 -2.814213752746582 3.846090078353882 -10.32906723022461 13.604955673217773
-0.4317712504416704 63.32979202270508 1.0001392103731632 10.537986755371094 28.753684997558594 7.786128520965576 -13.992887496948242 12.967070579528809 4.512237548828125 3.074537992477417 -10.855020523071289 1.6116052865982056 -9.00523853302002 17.48870086669922 -13.609328269958496 11.608562469482422 -27.634077072143555 -25.20871925354004 -0.21277190744876862 0.13829782605171204 -0.020748848095536232 -0.1680561751127243 -0.3624064326286316 -0.07818827778100967 0.1471623331308365 0.0415290892124176 -0.007379636168479919 18.807640075683594 -14.539286613464355 62.676692962646484 -24.600366592407227 -20.553190231323242 52.28215026855469 0.12065747380256653 18.49561882019043 2.2535109519958496 0.18502603471279144 0.1871563047170639 -0.038062211126089096 0.17333869636058807 0.08062318712472916 -0.07442739605903625 -0.4811641275882721 -0.16769249737262726 -0.1636262983083725 7.287126064300537 5.497127056121826 0.7617217302322388 0.02201380953192711 -0.03288181871175766 0.08609800040721893 3.199172258377075 0.9104802012443542 -0.07930277287960052 0.16291862726211548 -0.036156490445137024 0.28191208839416504 9.864871978759766 0.9343838095664978 0.006015281658619642 -0.2146259993314743 0.16510359942913055 0.27283358573913574 2.3054304122924805 -0.6075230240821838 -0.37155991792678833 0.23507148027420044 0.11970555782318115 0.03023543395102024 -113.12045288085938 58.896873474121094 48.89265060424805 27.555461883544922 -43.24390411376953 -90.55184173583984 9.71104621887207 -64.05242156982422 16.031904220581055 -0.008649202063679695 -0.09289060533046722 0.32528796792030334 0.18181347846984863 0.3395552337169647 -0.09958593547344208 0.14861741662025452 0.11977198719978333 -0.11400552093982697 -7.835397720336914 5.2134881019592285 -0.22921942174434662 -0.12788647413253784 0.06580740213394165 0.1461995244026184 -3.161332368850708 0.37311869859695435 0.21489882469177246 -0.027033982798457146 -0.034138765186071396 0.34080708026885986 -10.425703048706055 0.34724199771881104 -0.059840958565473557 -0.3445833921432495 0.2999904155731201 -0.038775213062763214 -2.3446719646453857 -0.3186652660369873 0.10079634189605713 -0.3983209729194641 -0.16067712008953094 -0.07057085633277893 -63.818878173828125 -59.91898727416992 -61.516483306884766 -2.9725401401519775 72.76611328125 3.40366268157959 -1.1252447366714478 1.9473096132278442 2.2074103355407715 -0.22032245993614197 0.009872807189822197 -0.15101538598537445 9.264695167541504 -1.8272836208343506 5.446456432342529 0.1448793262243271 43.22251510620117 -2.2900192737579346 9.492445945739746 -14.353631973266602 30.45085334777832
-0.8077495265752077 61.48350238800049 0.801783986389637 2.958860397338867 32.19664764404297 6.3418989181518555 -13.414320945739746 13.057591438293457 5.0177903175354 1.6017154455184937 -10.9192533493042 1.1547874212265015 -7.576922416687012 15.768036842346191 -12.2540864944458 11.491808891296387 -27.706544876098633 -20.178537368774414 -0.40557661652565 0.17656007409095764 0.0883183553814888 -0.3031752109527588 0.08166895061731339 0.27789661288261414 0.4778845012187958 0.7111612558364868 -0.2721751034259796 3.0928847789764404 -20.95330238342285 68.77767944335938 -25.442737579345703 -27.669143676757812 66.20439147949219 0.6676144003868103 5.2592926025390625 1.2737399339675903 -0.15653659403324127 -0.15588507056236267 -0.17488853633403778 -0.19655664265155792 0.32368940114974976 -0.20471450686454773 -0.6159422397613525 -0.191441148519516 -0.14666733145713806 6.821402072906494 5.41593599319458 0.5139572024345398 -0.5031698942184448 0.43130066990852356 -0.21785466372966766 2.886773109436035 0.8646647334098816 0.5724731683731079 0.3101537525653839 -0.24087074398994446 0.39011046290397644 10.253167152404785 1.0217761993408203 -0.6255359053611755 -0.9952479600906372 0.5523592233657837 0.38526877760887146 2.2334485054016113 -0.686215877532959 0.012335261330008507 -0.0236596018075943 0.01308224443346262 -0.3170933723449707 -109.82853698730469 53.023475646972656 47.30553436279297 27.834701538085938 -40.55055618286133 -87.21659851074219 7.7780985832214355 -61.294921875 13.493428230285645 0.18192711472511292 0.030490169301629066 0.26137247681617737 0.13295647501945496 0.44808652997016907 -0.4598870575428009 -0.7634986042976379 0.41769465804100037 -0.12611103057861328 -7.500467777252197 5.76186466217041 -0.4463418126106262 0.27549242973327637 0.16484782099723816 -0.3860234320163727 -2.8825159072875977 0.8095900416374207 0.3692081570625305 -0.6390347480773926 0.04784928262233734 -0.00559960538521409 -10.380267143249512 0.6111564636230469 -0.30764687061309814 -0.16165480017662048 -0.5343833565711975 -0.14299379289150238 -2.119187831878662 -0.7518754601478577 0.035886820405721664 -0.1624942570924759 -0.2998475730419159 0.3499337434768677 -52.90046310424805 -58.72550582885742 -50.37285614013672 -1.8355214595794678 74.19294738769531 2.5812439918518066 -3.1080009937286377 -3.1316351890563965 -7.082594394683838 -0.16220779716968536 -0.36803558468818665 0.007631589658558369 10.81751823425293 -0.10235907882452011 4.490124225616455 0.3664788007736206 37.975582122802734 -2.1602678298950195 8.219461441040039 -9.678787231445312 28.71706771850586
